<?xml version="1.0" encoding="utf-8"?>
<svg width="500" height="150" viewBox="0 0 500 150" fill="none" stroke="none" version="1.1" xmlns:xlink="http://www.w3.org/1999/xlink" xmlns="http://www.w3.org/2000/svg">
  <defs>
    <path id="path_1" d="M500 0L500 0L500 150L0 150L0 0L500 0Z" />
    <rect id="rect_2" x="0" y="0" width="500" height="150" />
    <clipPath id="clip_path_3">
      <use xlink:href="#rect_2" />
    </clipPath>
  </defs>
  <g id="Ribbon1" opacity="1" clip-path="url(#clip_path_3)">
    <g>
      <use xlink:href="#path_1" style="fill:#FFFFFF;fill-rule:evenodd;mix-blend-mode:normal;" />
      <g>
        <g id="Group" transform="translate(17 8)">
          <path id="Shape" d="M22.924 30.4124L25.9747 34.3988L0 90.4567L40.8943 56.8892L81.905 103.867L67.7572 38.646L105.731 3.6191L61.4631 8.6897L59.8139 0L22.924 30.4124Z" style="fill:#FC4850;fill-rule:evenodd;mix-blend-mode:normal;" transform="translate(25.269 26.133)" />
          <path id="Shape" d="M50.0587 24.4423L45.4197 0L29.4806 35.5181L0 37.9459L13.0284 54.9705L50.0587 24.4423Z" style="fill:#FC4850;fill-rule:evenodd;mix-blend-mode:normal;" transform="translate(29.924 5.88)" />
          <path id="Path" d="M0 96.9794L117.635 0" style="fill:none;stroke-width:3;stroke:#FC4850;stroke-linecap:square;mix-blend-mode:normal;" />
        </g>
        <g style="mix-blend-mode:normal;" transform="translate(166 17)">
          <path d="M13.16 60.816L16.52 60.816L16.52 62.16L3.08 62.16L3.08 60.816L6.44 60.816L6.44 20.384L3.08 20.384L3.08 19.04L35.56 19.04L35.56 20.384L32.2 20.384L32.2 60.816L35.56 60.816L35.56 62.16L22.12 62.16L22.12 60.816L25.48 60.816L25.48 20.384L13.16 20.384L13.16 60.816ZM55.272 37.856Q55.272 47.488 58.576 62.328Q58.576 62.328 57.68 62.328Q54.544 62.328 52.752 61.992Q52.024 59.136 51.464 55.272Q49.84 56.616 48.608 58.128Q47.488 59.584 46.312 61.992Q44.632 62.328 42.784 62.328Q41.888 62.328 41.104 62.16Q41.048 61.824 41.048 61.208Q41.048 59.864 41.608 58.128Q42 56.84 42.616 55.468Q43.232 54.096 43.736 53.2Q44.24 52.304 45.192 50.652Q46.144 49 46.704 48.048Q48.328 45.192 49.392 41.496Q49.168 39.704 49.168 37.52L50.12 37.52Q53.2 37.52 55.272 37.856ZM51.128 53.368Q51.016 52.36 50.512 49.588Q50.008 46.816 49.84 44.968Q49.112 46.76 47.936 48.72Q45.36 53.368 44.072 56.448L44.072 56.952Q44.072 58.352 44.688 58.352Q44.744 58.352 45.024 58.464L45.248 58.52Q46.256 58.52 46.816 58.016Q46.928 57.848 47.992 56.616Q49.392 54.992 51.128 53.368ZM71.456 37.52Q71.008 40.768 70.784 45.304Q74.032 45.92 78.176 47.096Q78.344 43.792 78.512 42.224Q78.848 39.816 79.464 38.136Q81.704 37.464 83.832 37.464Q84 37.464 84.308 37.492Q84.616 37.52 84.728 37.52Q84.224 41.44 84.224 45.976Q84.224 54.376 85.68 62.16Q84.448 62.328 82.824 62.328Q81.536 62.328 80.08 62.16Q78.904 59.528 78.344 52.752Q78.176 50.736 78.176 48.608Q75.712 47.488 70.672 46.76Q70.224 52.696 70.224 59.696L70.224 62.16Q68.88 62.384 67.368 62.384Q66.36 62.384 64.344 62.16Q64.288 61.712 64.288 60.704L64.288 59.136Q64.288 49.056 65.408 41.104Q65.688 39.2 66.136 37.968Q68.152 37.464 70.392 37.464Q71.12 37.464 71.456 37.52ZM92.064 60.144L92.176 57.624Q92.344 53.2 92.568 41.776Q92.568 41.16 92.596 40.348Q92.624 39.536 92.652 39.004Q92.68 38.472 92.68 38.136Q95.144 37.52 97.72 37.52L98.616 37.52Q98.616 40.32 98.392 45.584L98.168 50.736Q98 54.656 97.72 59.696L97.496 62.16Q96.152 62.328 95.592 62.328L94.528 62.328Q93.912 62.328 93.1 62.244Q92.288 62.16 91.952 62.16Q92.008 61.656 92.064 60.144ZM104.048 50.12Q109.2 50.68 110.04 51.24Q114.128 56.56 114.576 62.16Q113.4 62.328 111.944 62.328Q110.32 62.328 108.64 62.16Q107.912 55.664 104.104 51.856Q103.656 51.744 103.488 51.744Q102.648 51.576 101.976 51.044Q101.304 50.512 101.304 49.728Q101.304 49.392 101.36 49.112Q103.32 44.296 107.016 40.208Q107.744 39.368 108.472 38.808Q110.432 37.24 113.904 37.24L114.408 37.24Q114.744 37.52 114.688 37.744Q112.672 39.536 112.672 42.168Q112.672 42.896 112.84 43.624Q112.728 44.016 112.392 43.904Q111.72 43.4 110.432 43.008Q109.144 42.616 108.08 42.616Q106.96 42.616 106.568 43.064Q103.768 46.088 103.04 49.112Q102.984 50.064 104.048 50.12ZM127.232 62.16Q125.888 62.384 124.32 62.384Q122.584 62.384 121.464 62.16Q121.352 60.48 121.352 56.336Q121.352 49.952 121.8 41.608Q121.8 41.216 122.024 38.08Q123.928 37.464 127.736 37.352Q127.624 39.816 127.344 47.768L135.408 44.296Q135.52 39.648 135.744 38.024Q137.928 37.408 141.456 37.408Q141.176 43.456 141.176 50.4L141.176 51.072Q141.176 59.808 141.456 62.16Q139.44 62.384 139.16 62.384L138.376 62.384Q137.536 62.384 135.52 62.16Q135.296 59.584 135.296 53.032L135.296 49.448Q135.296 47.04 135.352 45.864L127.344 49.336Q127.232 50.4 127.232 57.064Q127.232 57.064 127.232 62.16Z" transform="translate(0 -16.436)" style="fill:#FC4850;" />
          <path d="M13.16 60.816L16.52 60.816L16.52 62.16L3.08 62.16L3.08 60.816L6.44 60.816L6.44 20.384L3.08 20.384L3.08 19.04L35.56 19.04L35.56 20.384L32.2 20.384L32.2 60.816L35.56 60.816L35.56 62.16L22.12 62.16L22.12 60.816L25.48 60.816L25.48 20.384L13.16 20.384L13.16 60.816ZM44.688 57.848Q47.432 57.232 48.86 56.028Q50.288 54.824 50.288 52.248Q50.288 50.456 49.896 48.608L49.392 46.424Q49.336 45.976 49.28 45.108Q49.224 44.24 49.224 44.072Q47.6 44.352 46.396 45.696Q45.192 47.04 44.632 48.776Q44.184 50.008 44.184 51.072Q44.184 52.528 44.688 57.848ZM52.752 40.768Q52.752 43.232 53.144 47.572Q53.536 51.912 53.536 54.04Q53.536 58.856 51.128 60.928Q49.784 62.16 45.36 62.832Q45.976 68.376 45.976 72.632Q45.976 78.4 44.184 82.824Q43.792 83.72 42.868 84.644Q41.944 85.568 41.104 85.792L40.936 85.792Q40.488 85.792 40.488 85.456Q40.488 85.344 40.544 85.288Q42.112 82.152 42.112 79.352Q42.112 75.768 41.888 73.136Q40.6 60.648 40.6 54.544Q40.6 43.064 47.544 38.808Q50.288 37.24 52.528 37.24Q52.92 37.24 52.92 37.8Q52.92 38.136 52.836 39.228Q52.752 40.32 52.752 40.768ZM73.528 37.856Q73.528 47.488 76.832 62.328Q76.832 62.328 75.936 62.328Q72.8 62.328 71.008 61.992Q70.28 59.136 69.72 55.272Q68.096 56.616 66.864 58.128Q65.744 59.584 64.568 61.992Q62.888 62.328 61.04 62.328Q60.144 62.328 59.36 62.16Q59.304 61.824 59.304 61.208Q59.304 59.864 59.864 58.128Q60.256 56.84 60.872 55.468Q61.488 54.096 61.992 53.2Q62.496 52.304 63.448 50.652Q64.4 49 64.96 48.048Q66.584 45.192 67.648 41.496Q67.424 39.704 67.424 37.52L68.376 37.52Q71.456 37.52 73.528 37.856ZM69.384 53.368Q69.272 52.36 68.768 49.588Q68.264 46.816 68.096 44.968Q67.368 46.76 66.192 48.72Q63.616 53.368 62.328 56.448L62.328 56.952Q62.328 58.352 62.944 58.352Q63 58.352 63.28 58.464L63.504 58.52Q64.512 58.52 65.072 58.016Q65.184 57.848 66.248 56.616Q67.648 54.992 69.384 53.368ZM82.488 62.16Q82.488 62.16 82.488 60.2Q82.488 54.992 82.656 48.888Q82.88 38.416 83.216 37.688L99.288 37.688Q99.68 37.688 99.792 38.22Q99.904 38.752 99.624 39.032L91.952 48.328L97.496 48.328Q98.28 48.328 98.616 49.168L103.32 60.48Q103.544 61.04 103.544 61.376Q103.544 62.16 102.704 62.16L82.488 62.16ZM93.296 50.624Q93.072 49.952 92.512 49.84L90.832 49.672L88.48 52.584Q88.48 54.376 88.508 57.148Q88.536 59.92 88.536 60.816L96.768 60.816Q97.552 60.816 97.104 59.808L93.296 50.624ZM88.592 44.856L88.48 50.288L97.328 39.648Q97.496 39.48 97.496 39.312Q97.496 39.032 97.104 39.032L88.984 39.032Q88.648 41.44 88.592 44.856ZM116.536 62.832Q116.536 62.832 116.424 62.832Q116.424 62.832 116.256 62.832Q116.256 62.832 116.144 62.832Q116.144 62.832 116.032 62.832Q113.68 61.768 111.552 59.08Q109.816 56.84 109.032 54.936Q108.248 53.032 108.248 50.456Q108.248 43.008 114.8 39.592Q118.16 37.856 121.296 37.184Q121.408 37.128 121.632 37.128Q121.744 37.128 121.856 37.184Q125.216 38.864 127.008 41.496Q128.688 43.904 129.388 45.64Q130.088 47.376 130.088 49.952Q130.088 52.976 128.492 55.58Q126.896 58.184 124.152 59.864Q121.128 61.712 116.536 62.832ZM123.648 58.856Q125.72 57.792 125.72 55.216Q125.72 52.696 123.2 47.152Q120.176 40.488 116.536 40.488Q115.696 40.488 114.688 40.992Q112.448 42.168 112.448 45.248Q112.448 48.496 114.688 52.64Q118.216 59.36 121.744 59.36Q122.64 59.36 123.648 58.856ZM146.944 54.32Q146.944 58.072 144.312 60.284Q141.68 62.496 137.816 62.496L137.256 62.496Q136.92 62.496 137.032 62.16Q137.2 61.376 137.2 60.424Q137.2 60.424 137.2 58.128Q137.2 55.72 136.724 51.352Q136.248 46.984 136.248 44.8Q136.248 41.328 139.216 39.228Q142.184 37.128 145.992 37.128L146.664 37.128Q147.056 38.64 147.056 40.488Q147.056 40.992 147.028 41.608Q147 42.224 147 42.28Q147 42.616 146.44 42.616Q144.592 42.616 143.052 43.736Q141.512 44.856 141.512 46.76Q141.512 48.664 141.428 52.416Q141.344 56.168 141.344 56.672Q142.016 56.672 142.632 56.42Q143.248 56.168 143.808 55.664Q144.368 55.16 144.704 54.796Q145.04 54.432 145.544 53.788Q146.048 53.144 146.104 53.032Q146.16 52.976 146.272 52.976Q146.496 52.976 146.72 53.452Q146.944 53.928 146.944 54.32ZM162.848 41.272Q162.848 40.6 162.624 37.464Q166.88 37.576 168.504 37.912Q168.784 44.296 169.904 52.08Q170.52 56.672 171.92 62.16Q170.632 62.328 169.12 62.328Q167.384 62.328 166.096 62.16Q165.032 58.52 163.576 47.88Q163.576 47.544 163.464 46.872Q163.352 46.2 163.352 45.864L161.56 48.384Q157.528 54.264 157.528 59.696Q157.528 60.592 157.864 62.16Q157.024 62.328 154.728 62.328L154.616 62.328Q152.824 62.328 152.152 62.16Q151.984 61.656 151.984 61.152Q151.984 59.864 152.936 58.24Q153.832 56.616 154.924 55.02Q156.016 53.424 157.668 51.268Q159.32 49.112 159.936 48.272L161.336 46.368Q162.848 43.792 162.848 41.272ZM191.408 37.856Q191.408 47.488 194.712 62.328Q194.712 62.328 193.816 62.328Q190.68 62.328 188.888 61.992Q188.16 59.136 187.6 55.272Q185.976 56.616 184.744 58.128Q183.624 59.584 182.448 61.992Q180.768 62.328 178.92 62.328Q178.024 62.328 177.24 62.16Q177.184 61.824 177.184 61.208Q177.184 59.864 177.744 58.128Q178.136 56.84 178.752 55.468Q179.368 54.096 179.872 53.2Q180.376 52.304 181.328 50.652Q182.28 49 182.84 48.048Q184.464 45.192 185.528 41.496Q185.304 39.704 185.304 37.52L186.256 37.52Q189.336 37.52 191.408 37.856ZM187.264 53.368Q187.152 52.36 186.648 49.588Q186.144 46.816 185.976 44.968Q185.248 46.76 184.072 48.72Q181.496 53.368 180.208 56.448L180.208 56.952Q180.208 58.352 180.824 58.352Q180.88 58.352 181.16 58.464L181.384 58.52Q182.392 58.52 182.952 58.016Q183.064 57.848 184.128 56.616Q185.528 54.992 187.264 53.368ZM200.368 62.16Q200.368 62.16 200.368 60.2Q200.368 54.992 200.536 48.888Q200.76 38.416 201.096 37.688L217.168 37.688Q217.56 37.688 217.672 38.22Q217.784 38.752 217.504 39.032L209.832 48.328L215.376 48.328Q216.16 48.328 216.496 49.168L221.2 60.48Q221.424 61.04 221.424 61.376Q221.424 62.16 220.584 62.16L200.368 62.16ZM211.176 50.624Q210.952 49.952 210.392 49.84L208.712 49.672L206.36 52.584Q206.36 54.376 206.388 57.148Q206.416 59.92 206.416 60.816L214.648 60.816Q215.432 60.816 214.984 59.808L211.176 50.624ZM206.472 44.856L206.36 50.288L215.208 39.648Q215.376 39.48 215.376 39.312Q215.376 39.032 214.984 39.032L206.864 39.032Q206.528 41.44 206.472 44.856ZM234.976 37.52Q234.528 40.768 234.304 45.304Q237.552 45.92 241.696 47.096Q241.864 43.792 242.032 42.224Q242.368 39.816 242.984 38.136Q245.224 37.464 247.352 37.464Q247.52 37.464 247.828 37.492Q248.136 37.52 248.248 37.52Q247.744 41.44 247.744 45.976Q247.744 54.376 249.2 62.16Q247.968 62.328 246.344 62.328Q245.056 62.328 243.6 62.16Q242.424 59.528 241.864 52.752Q241.696 50.736 241.696 48.608Q239.232 47.488 234.192 46.76Q233.744 52.696 233.744 59.696L233.744 62.16Q232.4 62.384 230.888 62.384Q229.88 62.384 227.864 62.16Q227.808 61.712 227.808 60.704L227.808 59.136Q227.808 49.056 228.928 41.104Q229.208 39.2 229.656 37.968Q231.672 37.464 233.912 37.464Q234.64 37.464 234.976 37.52ZM255.584 62.16Q255.584 52.528 256.872 41.16Q257.04 39.088 257.264 38.192Q260.232 37.408 264.04 37.408Q263.032 41.888 262.304 49.728Q264.88 48.72 270.032 46.592Q270.312 46.48 270.704 47.04Q273.728 52.976 275.352 58.912Q275.8 60.872 275.968 62.16L255.584 62.16ZM280.728 37.52Q283.528 37.52 285.264 37.968Q285.264 47.6 286.104 57.904Q286.328 60.648 286.72 62.16Q285.096 62.328 283.864 62.328Q282.408 62.328 280.728 62.16Q280.448 61.376 280.168 58.912Q279.496 51.52 279.496 40.544L279.496 37.52Q279.496 37.52 280.728 37.52ZM269.08 60.816Q268.52 55.44 265.104 50.12Q264.152 50.344 263.48 50.848Q262.248 51.856 261.912 53.872Q261.464 58.576 261.464 60.816L269.08 60.816ZM293.44 59.136Q293.44 57.232 293.02 53.704Q292.6 50.176 292.6 48.44Q292.6 43.288 294.168 41.44Q295.792 39.48 298.732 38.388Q301.672 37.296 304.416 37.296Q305.2 37.296 305.536 37.352Q305.648 37.856 305.648 38.64Q305.648 41.048 304.696 41.16Q299.824 41.888 298.144 44.184Q297.808 44.632 297.808 45.696L297.808 48.944Q300.664 47.208 304.808 45.752Q304.92 46.76 304.92 47.712Q304.92 49.392 304.696 50.232Q300.832 51.576 297.92 54.04L297.92 57.904Q301.336 57.904 303.8 55.44Q304.248 54.992 304.472 56Q304.528 56.392 304.472 56.616Q303.8 59.36 301.224 60.816Q298.592 62.272 294.672 62.272L294 62.272L293.72 62.272Q293.44 62.216 293.44 60.424L293.44 59.136Z" transform="translate(0 39.564)" style="fill:#FC4850;" />
        </g>
      </g>
    </g>
  </g>
</svg>